<mxfile host="app.diagrams.net" modified="2024-03-06T15:32:19.328Z" agent="Mozilla/5.0 (X11; Ubuntu; Linux x86_64; rv:123.0) Gecko/20100101 Firefox/123.0" etag="EYIPM5747gyPwKNrmwLS" version="24.0.2" type="google">
  <diagram name="Page-1" id="oslXE-QPdfJBtRTdOb-g">
    <mxGraphModel grid="1" page="1" gridSize="10" guides="1" tooltips="1" connect="1" arrows="1" fold="1" pageScale="1" pageWidth="850" pageHeight="1100" math="0" shadow="0">
      <root>
        <mxCell id="0" />
        <mxCell id="1" parent="0" />
        <mxCell id="AuopYTP6WqPWuHDeWIMO-1" value="Researcher" style="shape=umlActor;verticalLabelPosition=bottom;verticalAlign=top;html=1;outlineConnect=0;" vertex="1" parent="1">
          <mxGeometry x="110" y="336" width="22.32" height="43.87" as="geometry" />
        </mxCell>
        <mxCell id="AuopYTP6WqPWuHDeWIMO-2" value="" style="shape=mxgraph.signs.science.microscope;html=1;pointerEvents=1;fillColor=#505050;strokeColor=none;verticalLabelPosition=bottom;verticalAlign=top;align=center;" vertex="1" parent="1">
          <mxGeometry x="90" y="346" width="20" height="33.87" as="geometry" />
        </mxCell>
        <mxCell id="AuopYTP6WqPWuHDeWIMO-6" value="" style="sketch=0;pointerEvents=1;shadow=0;dashed=0;html=1;strokeColor=none;fillColor=#505050;aspect=fixed;labelPosition=center;verticalLabelPosition=bottom;verticalAlign=top;align=center;outlineConnect=0;shape=mxgraph.vvd.web_browser;" vertex="1" parent="1">
          <mxGeometry x="140" y="337.57" width="59.57" height="42.3" as="geometry" />
        </mxCell>
        <mxCell id="AuopYTP6WqPWuHDeWIMO-7" value="" style="aspect=fixed;sketch=0;html=1;dashed=0;whitespace=wrap;fillColor=#505050;strokeColor=#ffffff;points=[[0.005,0.63,0],[0.1,0.2,0],[0.9,0.2,0],[0.5,0,0],[0.995,0.63,0],[0.72,0.99,0],[0.5,1,0],[0.28,0.99,0]];shape=mxgraph.kubernetes.icon2;prIcon=api" vertex="1" parent="1">
          <mxGeometry x="273.96" y="329.87" width="52.08" height="50" as="geometry" />
        </mxCell>
        <mxCell id="AuopYTP6WqPWuHDeWIMO-9" value="User-facing API" style="text;html=1;align=center;verticalAlign=middle;whiteSpace=wrap;rounded=0;" vertex="1" parent="1">
          <mxGeometry x="270" y="385.87" width="63.96" height="30" as="geometry" />
        </mxCell>
        <mxCell id="AuopYTP6WqPWuHDeWIMO-10" value="" style="aspect=fixed;sketch=0;html=1;dashed=0;whitespace=wrap;fillColor=#505050;strokeColor=#ffffff;points=[[0.005,0.63,0],[0.1,0.2,0],[0.9,0.2,0],[0.5,0,0],[0.995,0.63,0],[0.72,0.99,0],[0.5,1,0],[0.28,0.99,0]];shape=mxgraph.kubernetes.icon2;prIcon=api" vertex="1" parent="1">
          <mxGeometry x="383.96000000000004" y="329.87" width="52.08" height="50" as="geometry" />
        </mxCell>
        <mxCell id="AuopYTP6WqPWuHDeWIMO-11" value="Worker-facing API" style="text;html=1;align=center;verticalAlign=middle;whiteSpace=wrap;rounded=0;" vertex="1" parent="1">
          <mxGeometry x="370" y="385.87" width="80" height="30" as="geometry" />
        </mxCell>
        <mxCell id="AuopYTP6WqPWuHDeWIMO-14" value="" style="image;points=[];aspect=fixed;html=1;align=center;shadow=0;dashed=0;image=img/lib/allied_telesis/computer_and_terminals/Server_Desktop.svg;spacing=0;" vertex="1" parent="1">
          <mxGeometry x="509.28" y="290" width="31.45" height="39.87" as="geometry" />
        </mxCell>
        <mxCell id="AuopYTP6WqPWuHDeWIMO-15" value="" style="sketch=0;points=[[0,0,0],[0.25,0,0],[0.5,0,0],[0.75,0,0],[1,0,0],[0,1,0],[0.25,1,0],[0.5,1,0],[0.75,1,0],[1,1,0],[0,0.25,0],[0,0.5,0],[0,0.75,0],[1,0.25,0],[1,0.5,0],[1,0.75,0]];outlineConnect=0;fontColor=#232F3E;fillColor=none;strokeColor=#505050;dashed=0;verticalLabelPosition=bottom;verticalAlign=top;align=center;html=1;fontSize=12;fontStyle=0;aspect=fixed;shape=mxgraph.aws4.resourceIcon;resIcon=mxgraph.aws4.batch;spacing=0;" vertex="1" parent="1">
          <mxGeometry x="503.00000000000006" y="385.87" width="44" height="44" as="geometry" />
        </mxCell>
        <mxCell id="AuopYTP6WqPWuHDeWIMO-16" value="" style="sketch=0;pointerEvents=1;shadow=0;dashed=0;html=1;strokeColor=none;fillColor=#505050;labelPosition=center;verticalLabelPosition=bottom;verticalAlign=top;outlineConnect=0;align=center;shape=mxgraph.office.servers.cluster_server;" vertex="1" parent="1">
          <mxGeometry x="510" y="340" width="30" height="39.87" as="geometry" />
        </mxCell>
        <mxCell id="AuopYTP6WqPWuHDeWIMO-33" value="" style="endArrow=none;html=1;rounded=0;" edge="1" parent="1">
          <mxGeometry width="50" height="50" relative="1" as="geometry">
            <mxPoint x="210" y="360" as="sourcePoint" />
            <mxPoint x="270" y="360" as="targetPoint" />
          </mxGeometry>
        </mxCell>
        <mxCell id="AuopYTP6WqPWuHDeWIMO-34" value="" style="endArrow=none;html=1;rounded=0;" edge="1" parent="1">
          <mxGeometry width="50" height="50" relative="1" as="geometry">
            <mxPoint x="330" y="360" as="sourcePoint" />
            <mxPoint x="380" y="360" as="targetPoint" />
          </mxGeometry>
        </mxCell>
        <mxCell id="AuopYTP6WqPWuHDeWIMO-35" value="" style="endArrow=none;html=1;rounded=0;" edge="1" parent="1">
          <mxGeometry width="50" height="50" relative="1" as="geometry">
            <mxPoint x="440" y="360" as="sourcePoint" />
            <mxPoint x="500" y="360" as="targetPoint" />
          </mxGeometry>
        </mxCell>
        <mxCell id="AuopYTP6WqPWuHDeWIMO-38" value="&lt;div align=&quot;left&quot;&gt;Local computer&lt;br&gt;&lt;/div&gt;" style="text;html=1;align=center;verticalAlign=middle;whiteSpace=wrap;rounded=0;" vertex="1" parent="1">
          <mxGeometry x="547" y="294.93" width="73" height="30" as="geometry" />
        </mxCell>
        <mxCell id="AuopYTP6WqPWuHDeWIMO-39" value="&lt;div align=&quot;left&quot;&gt;Cloud compute&lt;br&gt;&lt;/div&gt;" style="text;html=1;align=center;verticalAlign=middle;whiteSpace=wrap;rounded=0;" vertex="1" parent="1">
          <mxGeometry x="547" y="392.87" width="60" height="30" as="geometry" />
        </mxCell>
        <mxCell id="AuopYTP6WqPWuHDeWIMO-40" value="&lt;div align=&quot;left&quot;&gt;Compute cluster&lt;br&gt;&lt;/div&gt;" style="text;html=1;align=center;verticalAlign=middle;whiteSpace=wrap;rounded=0;" vertex="1" parent="1">
          <mxGeometry x="547" y="343.72" width="60" height="30" as="geometry" />
        </mxCell>
        <UserObject label="&lt;font color=&quot;#0000cc&quot;&gt;&lt;u&gt;UserFrontend&lt;/u&gt;&lt;/font&gt;" link="https://github.com/ries-lab/DECODE_Cloud_UserFrontend" id="-dYWYVrknoESUQNFw6ME-1">
          <mxCell style="text;html=1;align=center;verticalAlign=middle;whiteSpace=wrap;rounded=0;" vertex="1" parent="1">
            <mxGeometry x="129.57" y="313.57" width="80.43" height="30" as="geometry" />
          </mxCell>
        </UserObject>
        <UserObject label="&lt;font color=&quot;#0000cc&quot;&gt;&lt;u&gt;UserAPI&lt;/u&gt;&lt;/font&gt;" link="https://github.com/ries-lab/DECODE_Cloud_UserAPI" id="-dYWYVrknoESUQNFw6ME-2">
          <mxCell style="text;html=1;align=center;verticalAlign=middle;whiteSpace=wrap;rounded=0;" vertex="1" parent="1">
            <mxGeometry x="261.77" y="309" width="80.43" height="30" as="geometry" />
          </mxCell>
        </UserObject>
        <UserObject label="&lt;font color=&quot;#0000cc&quot;&gt;&lt;u&gt;WorkerAPI&lt;/u&gt;&lt;/font&gt;" link="https://github.com/ries-lab/DECODE_Cloud_WorkerAPI" id="-dYWYVrknoESUQNFw6ME-3">
          <mxCell style="text;html=1;align=center;verticalAlign=middle;whiteSpace=wrap;rounded=0;" vertex="1" parent="1">
            <mxGeometry x="369.78999999999996" y="309" width="80.43" height="30" as="geometry" />
          </mxCell>
        </UserObject>
        <mxCell id="-dYWYVrknoESUQNFw6ME-4" value="" style="swimlane;startSize=0;dashed=1;" vertex="1" parent="1">
          <mxGeometry x="503" y="280" width="107" height="160" as="geometry" />
        </mxCell>
        <UserObject label="&lt;font color=&quot;#0000cc&quot;&gt;&lt;u&gt;JobFetcher&lt;/u&gt;&lt;/font&gt;" link="https://github.com/ries-lab/DECODE_Cloud_JobFetcher" id="-dYWYVrknoESUQNFw6ME-5">
          <mxCell style="text;html=1;align=center;verticalAlign=middle;whiteSpace=wrap;rounded=0;" vertex="1" parent="1">
            <mxGeometry x="516.29" y="256" width="80.43" height="30" as="geometry" />
          </mxCell>
        </UserObject>
        <mxCell id="-dYWYVrknoESUQNFw6ME-6" value="" style="swimlane;startSize=0;dashed=1;dashPattern=1 1;" vertex="1" parent="1">
          <mxGeometry x="261.77" y="306" width="188.23" height="124" as="geometry" />
        </mxCell>
        <mxCell id="-dYWYVrknoESUQNFw6ME-8" value="" style="swimlane;startSize=0;dashed=1;dashPattern=1 1;" vertex="1" parent="1">
          <mxGeometry x="460" y="385.87" width="180" height="44.13" as="geometry" />
        </mxCell>
        <UserObject label="&lt;font color=&quot;#0000cc&quot;&gt;&lt;u&gt;AWS_Infrastructure&lt;br&gt;&lt;/u&gt;&lt;/font&gt;" link="https://github.com/ries-lab/DECODE_AWS_Infrastructure" id="-dYWYVrknoESUQNFw6ME-9">
          <mxCell style="text;html=1;align=center;verticalAlign=middle;whiteSpace=wrap;rounded=0;" vertex="1" parent="1">
            <mxGeometry x="383.96" y="422.87" width="110.43" height="30" as="geometry" />
          </mxCell>
        </UserObject>
        <mxCell id="-dYWYVrknoESUQNFw6ME-10" value="&lt;div&gt;Container&lt;/div&gt;&lt;div&gt;repository&lt;/div&gt;&lt;div&gt;(AWS ECR)&lt;br&gt;&lt;/div&gt;" style="shape=image;html=1;verticalAlign=top;verticalLabelPosition=bottom;labelBackgroundColor=#ffffff;imageAspect=0;aspect=fixed;image=https://cdn0.iconfinder.com/data/icons/social-media-2104/24/social_media_social_media_logo_docker-128.png;spacing=-5;" vertex="1" parent="1">
          <mxGeometry x="680" y="337.93" width="40" height="40" as="geometry" />
        </mxCell>
        <mxCell id="-dYWYVrknoESUQNFw6ME-11" value="" style="endArrow=none;html=1;rounded=0;" edge="1" parent="1">
          <mxGeometry width="50" height="50" relative="1" as="geometry">
            <mxPoint x="612" y="359.5" as="sourcePoint" />
            <mxPoint x="672" y="359.5" as="targetPoint" />
          </mxGeometry>
        </mxCell>
        <UserObject label="&lt;font color=&quot;#0000cc&quot;&gt;&lt;u&gt;DECODE&lt;/u&gt;&lt;/font&gt;" link="https://github.com/ries-lab/DECODE_Internal/tree/dockerfile_stable" id="-dYWYVrknoESUQNFw6ME-12">
          <mxCell style="text;html=1;align=left;verticalAlign=middle;whiteSpace=wrap;rounded=0;" vertex="1" parent="1">
            <mxGeometry x="730" y="336" width="70" height="30" as="geometry" />
          </mxCell>
        </UserObject>
        <UserObject label="&lt;div align=&quot;left&quot;&gt;&lt;font color=&quot;#0000cc&quot;&gt;&lt;u&gt;Comet&lt;/u&gt;&lt;/font&gt;&lt;/div&gt;" link="https://github.com/nolan1999/Comet/tree/docker" id="-dYWYVrknoESUQNFw6ME-13">
          <mxCell style="text;html=1;align=left;verticalAlign=middle;whiteSpace=wrap;rounded=0;" vertex="1" parent="1">
            <mxGeometry x="730" y="353" width="100" height="30" as="geometry" />
          </mxCell>
        </UserObject>
        <mxCell id="-dYWYVrknoESUQNFw6ME-14" value="&lt;font color=&quot;#0000cc&quot;&gt;...&lt;/font&gt;" style="text;html=1;align=left;verticalAlign=middle;whiteSpace=wrap;rounded=0;" vertex="1" parent="1">
          <mxGeometry x="730" y="373.72" width="60" height="15.87" as="geometry" />
        </mxCell>
        <mxCell id="-dYWYVrknoESUQNFw6ME-16" value="" style="swimlane;startSize=0;dashed=1;dashPattern=12 12;" vertex="1" parent="1">
          <mxGeometry x="75.67" y="250" width="724.33" height="202.87" as="geometry" />
        </mxCell>
        <UserObject label="&lt;div align=&quot;right&quot;&gt;&lt;font color=&quot;#0000cc&quot;&gt;&lt;u&gt;IntegrationTests&lt;/u&gt;&lt;/font&gt;&lt;/div&gt;" link="https://github.com/ries-lab/DECODE_Cloud_IntegrationTests" id="-dYWYVrknoESUQNFw6ME-17">
          <mxCell style="text;html=1;align=right;verticalAlign=middle;whiteSpace=wrap;rounded=0;" vertex="1" parent="1">
            <mxGeometry x="719.57" y="224" width="80.43" height="30" as="geometry" />
          </mxCell>
        </UserObject>
        <UserObject label="&lt;div&gt;&lt;font color=&quot;#0000cc&quot;&gt;&lt;u&gt;Documentation&lt;/u&gt;&lt;/font&gt;&lt;/div&gt;" link="https://github.com/ries-lab/DECODE_Cloud_Documentation" id="-dYWYVrknoESUQNFw6ME-18">
          <mxCell style="text;html=1;align=left;verticalAlign=middle;whiteSpace=wrap;rounded=0;" vertex="1" parent="1">
            <mxGeometry x="75.67" y="220" width="80.43" height="30" as="geometry" />
          </mxCell>
        </UserObject>
        <mxCell id="-dYWYVrknoESUQNFw6ME-19" value="" style="swimlane;startSize=0;dashed=1;dashPattern=1 1;" vertex="1" parent="1">
          <mxGeometry x="650" y="330" width="140" height="100" as="geometry" />
        </mxCell>
      </root>
    </mxGraphModel>
  </diagram>
</mxfile>
